<?xml version="1.0" encoding="UTF-8" standalone="no"?>
<!-- Created with Inkscape (http://www.inkscape.org/) -->

<svg
   width="81.523117mm"
   height="80.69149mm"
   viewBox="0 0 81.523117 80.69149"
   version="1.1"
   id="svg805"
   inkscape:version="1.1.1 (eb90963e84, 2021-10-02)"
   sodipodi:docname="bikes.svg"
   xmlns:inkscape="http://www.inkscape.org/namespaces/inkscape"
   xmlns:sodipodi="http://sodipodi.sourceforge.net/DTD/sodipodi-0.dtd"
   xmlns="http://www.w3.org/2000/svg"
   xmlns:svg="http://www.w3.org/2000/svg">
  <sodipodi:namedview
     id="namedview807"
     pagecolor="#ffffff"
     bordercolor="#666666"
     borderopacity="1.0"
     inkscape:pageshadow="2"
     inkscape:pageopacity="0.0"
     inkscape:pagecheckerboard="0"
     inkscape:document-units="mm"
     showgrid="false"
     inkscape:zoom="0.89449801"
     inkscape:cx="438.7936"
     inkscape:cy="288.9889"
     inkscape:window-width="1612"
     inkscape:window-height="986"
     inkscape:window-x="0"
     inkscape:window-y="0"
     inkscape:window-maximized="1"
     inkscape:current-layer="layer1" />
  <defs
     id="defs802" />
  <g
     inkscape:label="Ebene 1"
     inkscape:groupmode="layer"
     id="layer1"
     transform="translate(-0.20081588,-0.28296926)">
    <path
       style="fill:#333333;fill-opacity:1;stroke-width:0.386503"
       d="m 14.679158,80.804924 c -4.009038,-0.60237 -7.0928548,-2.54211 -9.9682578,-6.2701 -7.684784,-9.9634 -5.24494703,-25.21257 5.007056,-31.294465 11.5482108,-6.757795 23.4554488,6.412925 23.6584238,17.917705 0,11.97606 -8.725842,21.14509 -18.697222,19.64686 z m 7.285302,-6.30803 c 2.688925,-1.47056 4.845992,-4.00729 6.068056,-7.1361 1.428342,-4.53624 1.347245,-9.50272 -0.275829,-13.11603 -1.93397,-4.28164 -5.005911,-6.91153 -8.980205,-7.687949 -5.437781,-1.062325 -10.8667028,2.377759 -13.2056578,8.367879 -1.302935,4.26258 -1.472381,8.71717 0.03535,12.44275 1.7706,4.32786 4.7995908,7.18809 8.7202058,8.23436 2.578782,0.68819 4.99977,0.33797 7.63808,-1.10491 z m 41.045253,6.31529 c -5.882863,-0.86189 -11.300845,-5.92995 -13.432882,-12.56531 -1.169066,-3.63839 -1.324183,-8.95425 -0.371178,-12.72038 1.43885,-5.68613 4.6262,-9.977667 9.405588,-12.663928 4.443998,-1.976959 10.290097,-1.576754 13.639469,0.405355 10.12417,6.006073 12.62208,21.205223 5.10946,31.089903 -3.81506,5.01964 -8.809825,7.26612 -14.350457,6.45436 z m 4.066162,-5.08286 c 4.131995,-0.91687 7.406645,-3.88027 9.240145,-8.36188 1.36016,-4.26004 1.51358,-8.6113 0.0354,-12.44275 -4.32654,-11.080355 -17.308399,-11.478211 -22.185863,-0.67993 -3.089724,7.33667 -0.503843,19.37755 8.820069,21.51874 1.462281,0.52186 2.854689,0.23828 4.090289,-0.0342 z m -28.787742,-9.24552 -1.031197,-1.23778 v -9.10327 -9.103274 l -5.909028,-3.922058 c -3.249965,-2.157131 -6.510093,-4.37035 -7.244729,-4.918263 -2.497459,-1.862678 -3.349664,-4.965225 -2.177956,-7.929093 0.298807,-0.755842 3.672245,-5.09868 7.496527,-9.650751 7.639733,-9.093628 8.569161,-9.830444 11.123706,-8.818467 1.66782,0.660703 2.630403,2.046473 6.413228,9.232705 l 3.17464,6.03086 5.748673,0.0028 c 5.670249,0.0028 5.760786,0.01737 6.636494,1.068513 0.942611,1.131456 0.913437,2.328404 -0.08756,3.592303 -0.74833,0.944872 -13.397343,1.175899 -14.831878,0.270896 -0.595383,-0.37561 -1.841715,-2.248199 -3.110177,-4.672976 -1.164167,-2.225409 -2.240298,-4.050876 -2.391407,-4.056593 -0.328898,-0.01245 -8.368315,9.318252 -8.368315,9.712422 0,0.150804 1.865312,1.455738 4.145139,2.899854 2.279826,1.444116 4.397022,2.862953 4.704877,3.152971 1.287318,1.212729 1.380539,2.177969 1.380539,14.294271 v 11.91711 l -1.031198,1.23778 c -0.763446,0.9164 -1.365881,1.23779 -2.320191,1.23779 -0.954309,0 -1.556744,-0.32139 -2.320191,-1.23779 z m 7.079103,-53.070101 c -1.698018,-1.387186 -2.519383,-2.92881 -2.724552,-5.1137288 -0.233105,-2.482454 0.04051,-3.720152 1.182557,-5.349313 1.960859,-2.797211 4.883291,-3.454546 7.502536,-1.687528 4.078601,2.751544 4.077666,9.4818078 -0.0018,12.2338688 -1.787465,1.205876 -4.42594,1.168992 -5.958837,-0.0833 z"
       id="path87"
       sodipodi:nodetypes="ssccssccsccsssssccssccccccccccssssssccssssssssscsscccsssscc" />
  </g>
</svg>
